<?xml version="1.0" standalone="no"?>
<!DOCTYPE svg PUBLIC "-//W3C//DTD SVG 20010904//EN"
 "http://www.w3.org/TR/2001/REC-SVG-20010904/DTD/svg10.dtd">
<svg version="1.0" xmlns="http://www.w3.org/2000/svg"
 width="194.000000pt" height="194.000000pt" viewBox="0 0 194.000000 194.000000"
 preserveAspectRatio="xMidYMid meet">

<g transform="translate(0.000000,194.000000) scale(0.100000,-0.100000)"
fill="#000000" stroke="none">
<path d="M899 1702 c-244 -124 -431 -346 -504 -599 -71 -241 -26 -481 118
-639 51 -56 51 -57 17 -39 -114 58 -210 185 -251 333 -18 62 -45 58 -58 -10
-15 -81 -22 -207 -14 -268 8 -54 9 -55 77 -102 79 -55 176 -97 296 -130 72
-19 109 -23 240 -23 132 0 167 3 235 23 243 70 411 213 480 407 l25 70 0 -60
c0 -108 -52 -228 -142 -330 -38 -42 -48 -59 -39 -68 20 -20 159 38 278 116
l62 40 6 73 c31 325 -137 680 -406 859 -84 56 -140 80 -233 100 -92 18 -151
19 -236 1 -36 -8 -66 -13 -68 -12 -6 6 111 59 159 71 72 20 189 19 262 -2 50
-14 60 -14 68 -2 16 27 -111 128 -248 198 -53 27 -57 26 -124 -7z m286 -577
c79 -22 170 -65 227 -109 41 -31 47 -41 53 -85 14 -104 -42 -238 -136 -325
-160 -149 -422 -180 -621 -74 -155 82 -238 211 -238 368 l0 76 48 36 c79 61
190 108 300 128 71 13 297 4 367 -15z"/>
<path d="M903 1090 l-22 -9 29 -30 c62 -61 15 -161 -75 -161 -13 0 -40 13 -58
30 l-35 30 -6 -31 c-16 -84 11 -176 70 -231 93 -87 248 -78 335 19 46 51 62
100 57 173 -8 118 -98 208 -215 216 -32 2 -68 0 -80 -6z"/>
</g>
</svg>
